<mxfile host="app.diagrams.net" modified="2020-10-18T15:15:13.216Z" agent="5.0 (X11)" etag="hWTkfFZArwEg-XyScfM_" version="13.8.0" type="github">
  <diagram id="zz4J_zeyeDPSYXP4pqU5" name="Page-1">
    <mxGraphModel dx="426" dy="711" grid="1" gridSize="10" guides="1" tooltips="1" connect="1" arrows="1" fold="1" page="1" pageScale="1" pageWidth="827" pageHeight="1169" math="0" shadow="0">
      <root>
        <mxCell id="0" />
        <mxCell id="1" parent="0" />
        <mxCell id="GnammL_zW7rf_ZhL0HVK-1" value="&lt;div style=&quot;font-size: 21px&quot;&gt;START&lt;/div&gt;" style="rounded=0;whiteSpace=wrap;html=1;" vertex="1" parent="1">
          <mxGeometry x="340" y="90" width="120" height="60" as="geometry" />
        </mxCell>
      </root>
    </mxGraphModel>
  </diagram>
</mxfile>
